<?xml version="1.0" standalone="no"?>
<!DOCTYPE svg PUBLIC "-//W3C//DTD SVG 20010904//EN"
 "http://www.w3.org/TR/2001/REC-SVG-20010904/DTD/svg10.dtd">
<svg version="1.0" xmlns="http://www.w3.org/2000/svg"
 width="400.000000pt" height="400.000000pt" viewBox="0 0 400.000000 400.000000"
 preserveAspectRatio="xMidYMid meet">

<g transform="translate(0.000000,400.000000) scale(0.100000,-0.100000)"
fill="#000000" stroke="none">
<path d="M2120 3743 c-166 -13 -332 -70 -622 -215 -98 -49 -244 -119 -326
-156 -238 -109 -339 -188 -399 -311 -23 -46 -29 -72 -31 -146 -4 -99 -5 -99
57 -16 39 53 130 136 138 127 3 -2 0 -13 -5 -23 -17 -31 -24 -156 -13 -216 6
-31 20 -77 31 -103 27 -58 102 -140 153 -166 38 -19 39 -21 33 -61 -3 -23 -8
-101 -12 -172 -5 -104 -3 -145 10 -204 48 -209 152 -423 276 -564 68 -77 188
-127 308 -127 68 0 83 -14 26 -25 -20 -3 -61 -17 -91 -31 -31 -13 -82 -28
-115 -33 -73 -12 -134 -42 -199 -98 -48 -41 -54 -43 -112 -43 -101 0 -236 -46
-316 -107 l-34 -26 7 79 c4 43 20 152 36 240 35 187 40 269 18 290 -22 22 -64
8 -107 -36 -65 -68 -107 -177 -136 -360 -28 -174 -35 -215 -47 -258 -6 -23
-12 -41 -14 -40 -8 8 -56 275 -69 381 -31 252 -50 317 -94 317 -30 0 -68 -54
-91 -127 -36 -117 -26 -250 40 -501 17 -68 29 -126 26 -129 -3 -4 -17 -1 -31
5 -32 15 -100 15 -126 1 -11 -5 -29 -25 -39 -42 -11 -18 -41 -43 -67 -57 -26
-14 -54 -36 -61 -50 -17 -33 -9 -129 18 -198 15 -39 20 -76 20 -147 0 -76 4
-104 21 -140 24 -51 90 -114 147 -140 20 -10 39 -19 41 -21 2 -2 -9 -24 -23
-49 -25 -42 -25 -45 -8 -45 12 0 24 11 32 30 7 16 23 41 36 55 16 17 20 27 11
30 -108 33 -184 88 -210 152 -20 50 -30 135 -22 173 7 30 8 31 26 14 17 -15
30 -16 145 -6 70 6 131 9 135 7 4 -3 10 -29 14 -57 15 -105 42 -156 100 -185
28 -15 28 -14 -12 29 -36 40 -63 97 -63 135 0 7 -7 30 -16 52 -13 34 -22 41
-77 61 -89 32 -141 72 -161 119 -16 41 -13 71 8 71 29 0 201 -33 293 -56 88
-22 107 -24 144 -14 24 7 53 19 64 27 20 15 20 15 0 8 -48 -19 -134 -17 -202
3 -37 11 -90 24 -116 28 -47 6 -49 7 -43 35 3 16 8 44 11 62 l5 32 -12 -30
c-10 -27 -12 -28 -19 -10 -5 14 -8 5 -8 -29 l-1 -49 -46 7 c-26 3 -57 6 -69 6
-18 0 -25 8 -33 39 -8 34 -6 45 15 80 14 24 34 43 49 47 34 9 111 -4 128 -22
49 -48 45 18 -15 254 -49 192 -54 306 -20 413 21 66 51 106 70 95 17 -11 29
-71 56 -286 15 -112 39 -253 54 -314 27 -106 27 -110 9 -128 -22 -22 -2 -25
29 -3 31 22 59 116 92 315 41 241 77 338 146 398 77 68 78 56 15 -293 -41
-230 -49 -436 -21 -569 37 -174 28 -337 -33 -589 -28 -118 -31 -137 -17 -135
21 4 89 332 98 478 5 77 8 97 14 76 10 -34 52 -82 94 -103 44 -23 124 -20 180
7 53 26 101 85 117 145 l11 40 51 -25 c40 -19 66 -25 121 -25 62 0 78 4 139
38 l69 38 90 -15 c50 -9 116 -16 147 -16 l57 0 32 -49 c17 -28 51 -63 75 -78
41 -26 44 -31 41 -68 -2 -22 -19 -75 -39 -117 -20 -42 -43 -104 -52 -137 -17
-68 -15 -182 3 -188 8 -3 10 10 6 49 -10 102 82 349 133 356 12 2 27 13 34 26
10 19 25 25 85 33 78 11 175 50 212 85 27 25 28 17 8 -61 -13 -54 -56 -314
-70 -434 l-7 -57 613 2 613 3 14 75 c7 42 14 147 15 240 1 244 -22 318 -151
467 -92 107 -211 182 -375 237 -43 14 -106 44 -140 65 l-61 40 -1 58 c-2 136
-114 251 -276 285 l-57 12 -7 92 c-7 96 -2 176 17 256 10 42 14 47 47 53 57
11 152 65 207 120 63 63 105 146 113 228 5 45 14 72 33 97 140 187 168 505 65
730 -71 155 -245 335 -437 451 -30 18 -57 36 -60 39 -3 4 -31 28 -63 53 -130
105 -281 152 -447 140z m195 -828 c47 -187 123 -308 260 -408 l85 -62 0 -82
c0 -45 -7 -114 -15 -154 -9 -40 -14 -74 -11 -76 6 -6 74 92 113 163 43 79 73
104 125 104 82 0 130 -52 130 -141 0 -163 -146 -316 -336 -352 l-65 -12 -50
-77 c-29 -45 -72 -94 -103 -118 -96 -77 -429 -222 -607 -265 -130 -32 -269 -9
-356 57 -98 75 -236 306 -291 486 -44 145 -50 234 -30 412 10 85 22 219 26
298 9 177 11 181 96 151 61 -21 181 -29 254 -15 32 5 33 5 10 -5 -93 -41 -92
-38 -7 -38 112 -1 206 23 337 87 63 31 120 58 125 60 6 3 -12 -19 -40 -48 -94
-98 -267 -214 -398 -266 -37 -14 -66 -28 -64 -30 5 -6 160 24 227 43 191 54
411 202 517 346 20 26 37 46 40 44 2 -3 15 -49 28 -102z m321 -1057 c-38 -129
-27 -395 24 -570 11 -39 30 -60 30 -33 0 14 3 14 25 -1 14 -9 24 -20 23 -24
-2 -5 -25 -36 -51 -70 l-48 -61 -46 41 c-79 69 -203 90 -303 50 -146 -58 -289
-225 -307 -361 l-6 -41 -83 4 c-45 1 -85 6 -89 10 -3 3 1 28 10 55 10 27 21
110 27 193 8 119 7 160 -5 230 -8 47 -18 92 -22 101 -5 12 2 18 26 23 50 10
253 85 371 137 222 98 314 167 373 281 30 58 64 81 51 36z m165 -444 c136 -70
193 -221 124 -326 -66 -100 -233 -309 -307 -384 -66 -67 -87 -83 -120 -88 -55
-9 -112 9 -141 44 -91 107 16 309 163 310 29 0 44 8 76 43 56 59 114 131 160
202 75 114 81 150 32 189 -37 29 -32 34 13 10z m-1329 -188 c-70 -52 -121
-115 -162 -201 -37 -78 -57 -189 -42 -244 12 -51 -3 -44 -18 7 -22 81 -5 177
52 283 36 70 120 156 173 180 63 29 62 23 -3 -25z m342 8 c3 -9 6 -29 6 -46
l0 -31 -26 38 c-20 30 -23 40 -12 46 19 12 25 11 32 -7z m505 -94 c-167 -100
-277 -297 -250 -445 14 -73 28 -106 64 -143 42 -43 17 -41 -32 3 -55 50 -74
108 -69 208 4 66 11 95 37 150 44 91 143 197 223 237 88 43 105 37 27 -10z
m-605 3 c54 -25 70 -69 63 -166 -5 -58 -15 -97 -35 -142 -54 -113 -118 -165
-206 -165 -57 0 -89 27 -106 91 -33 121 67 327 185 380 50 23 56 23 99 2z
m-504 -298 c0 -25 -13 -31 -45 -19 -14 6 -14 8 1 25 24 27 44 24 44 -6z m-23
-51 c22 -4 33 -14 41 -37 7 -18 23 -45 37 -61 32 -37 33 -83 3 -95 -32 -13
-173 -56 -236 -72 -69 -17 -86 -2 -86 74 0 43 6 61 32 100 58 84 117 109 209
91z m-949 -106 c6 -42 19 -96 30 -120 44 -96 44 -97 15 -104 -41 -11 -74 15
-108 81 -24 47 -30 71 -30 124 0 63 1 66 34 88 19 13 38 20 42 16 4 -5 12 -43
17 -85z m123 -193 l44 -25 -31 0 c-23 0 -36 7 -48 25 -20 31 -18 31 35 0z"/>
<path d="M1245 2639 c4 -24 12 -55 18 -69 11 -24 11 -24 15 13 3 34 6 37 25
31 46 -13 108 -56 103 -70 -3 -7 -1 -16 4 -19 6 -4 10 -13 10 -22 0 -12 -3
-13 -14 -4 -12 10 -15 3 -21 -46 -3 -32 -7 -64 -8 -70 -4 -24 -51 11 -72 52
-18 36 -24 40 -45 34 -22 -6 -22 -7 -4 -8 28 -1 36 -11 23 -28 -9 -10 -8 -13
0 -13 7 0 22 -12 35 -27 21 -24 32 -28 96 -31 54 -3 75 -1 81 9 5 8 8 50 8 94
-1 47 -4 70 -8 56 -6 -23 -8 -22 -40 27 -18 28 -49 65 -69 82 -21 18 -30 28
-22 24 11 -5 12 -4 5 4 -6 6 -37 14 -69 18 l-58 7 7 -44z"/>
<path d="M1381 2647 c2 -1 13 -9 24 -17 19 -14 19 -14 6 3 -7 9 -18 17 -24 17
-6 0 -8 -1 -6 -3z"/>
<path d="M2000 2491 c-48 -10 -80 -29 -80 -46 0 -8 -17 -26 -37 -41 -21 -14
-30 -24 -20 -20 15 5 17 2 13 -17 -3 -12 -3 -16 0 -9 13 29 89 55 172 60 72 4
82 2 82 -12 0 -9 8 -29 17 -43 17 -26 17 -26 -8 -20 -24 6 -27 4 -33 -31 -3
-20 -6 -52 -6 -69 0 -28 -4 -33 -22 -33 -22 0 -108 19 -153 34 -11 3 -1 -3 23
-15 60 -28 204 -49 221 -32 13 14 57 18 64 6 2 -5 2 -2 1 5 -5 19 22 25 57 13
31 -11 31 -10 15 7 -15 18 -15 20 1 35 10 8 38 25 63 36 53 24 80 44 80 59 0
6 -19 24 -42 40 -45 31 -48 32 -74 32 -8 0 -13 4 -10 9 3 5 -4 9 -17 8 -12 0
-51 5 -87 11 -89 16 -167 15 -226 -3 -62 -19 -72 -19 -53 0 32 32 162 41 279
19 l25 -4 -23 10 c-31 13 -178 21 -222 11z m350 -147 c11 -13 10 -19 -8 -37
l-22 -21 0 37 c0 40 10 46 30 21z"/>
<path d="M2258 2463 c7 -3 16 -2 19 1 4 3 -2 6 -13 5 -11 0 -14 -3 -6 -6z"/>
<path d="M2838 2303 c-25 -23 -53 -63 -71 -103 -30 -67 -59 -151 -53 -157 3
-4 46 91 46 101 0 3 10 21 22 42 20 34 22 35 35 18 21 -29 16 -86 -12 -124
-30 -41 -31 -44 -5 -30 54 29 70 108 32 160 -21 28 -22 31 -7 54 33 50 90 71
115 41 19 -23 8 -111 -23 -180 l-27 -60 25 30 c36 43 58 118 52 173 -9 81 -62
95 -129 35z"/>
<path d="M1433 2155 c-18 -8 -33 -20 -33 -28 0 -19 53 -98 85 -127 l28 -25
-30 45 c-17 25 -38 60 -47 78 -16 32 -16 32 8 42 24 9 45 30 29 30 -4 -1 -23
-7 -40 -15z"/>
<path d="M1455 1784 c74 -58 202 -80 311 -54 62 15 71 30 18 30 -24 0 -33 -4
-28 -11 5 -9 -21 -10 -97 -7 -83 4 -116 10 -164 32 -33 14 -51 19 -40 10z"/>
<path d="M1645 1077 c-75 -24 -132 -102 -155 -213 -9 -42 -8 -59 4 -88 25 -60
69 -60 134 -1 75 67 115 181 92 263 -11 44 -30 54 -75 39z"/>
</g>
</svg>
