<?xml version="1.0" standalone="no"?>
<!DOCTYPE svg PUBLIC "-//W3C//DTD SVG 20010904//EN"
 "http://www.w3.org/TR/2001/REC-SVG-20010904/DTD/svg10.dtd">
<svg version="1.0" xmlns="http://www.w3.org/2000/svg"
 width="128.000000pt" height="128.000000pt" viewBox="0 0 128.000000 128.000000"
 preserveAspectRatio="xMidYMid meet">

<g transform="translate(0.000000,128.000000) scale(0.100000,-0.100000)"
fill="#000000" stroke="none">
<path d="M0 640 l0 -640 640 0 640 0 0 640 0 640 -640 0 -640 0 0 -640z m711
400 c79 -15 155 -56 184 -98 32 -47 21 -56 -16 -14 -37 42 -112 76 -146 67
-14 -3 -22 -2 -19 3 9 14 -88 24 -168 17 -89 -8 -184 -52 -212 -98 -17 -29
-19 -53 -19 -277 0 -214 2 -249 17 -277 21 -37 75 -81 106 -86 12 -2 25 -6 28
-10 4 -4 27 -7 52 -7 38 0 43 2 37 17 -4 10 -10 44 -13 76 -5 59 -10 64 -44
46 -24 -13 -35 -5 -19 15 17 21 6 187 -14 199 -10 5 -15 23 -15 50 0 24 -5 48
-10 53 -8 8 1 23 29 52 38 39 39 42 30 82 -5 24 -8 43 -7 45 46 30 108 57 141
61 23 3 44 9 45 15 4 11 32 12 33 2 0 -5 2 -18 3 -30 2 -13 5 -26 9 -29 3 -3
1 -19 -5 -35 -9 -26 -7 -34 13 -55 24 -26 48 -31 66 -13 7 7 17 1 33 -21 21
-30 25 -31 67 -25 42 6 44 5 41 -17 -3 -23 -5 -23 -150 -26 l-148 -3 0 70 c0
38 -3 76 -6 85 -9 24 -41 19 -48 -6 -8 -30 -8 -452 0 -472 3 -9 15 -16 25 -16
26 0 41 41 37 99 -3 42 -6 46 -30 49 -28 3 -28 4 -28 78 l0 74 173 -2 172 -3
0 -215 0 -215 -90 -3 c-75 -2 -92 0 -102 14 -12 17 -16 16 -60 -6 -126 -63
-309 -15 -371 98 -21 38 -24 60 -29 195 -6 161 7 334 28 379 16 36 106 98 166
114 59 16 162 17 234 4z"/>
<path d="M832 588 c-8 -8 -7 -15 6 -25 16 -12 15 -14 -7 -31 -14 -11 -33 -17
-47 -14 -21 4 -24 1 -24 -26 0 -17 -7 -60 -15 -97 -15 -61 -14 -67 2 -90 10
-13 25 -27 33 -30 22 -7 115 -9 126 -3 5 4 8 78 6 165 l-3 160 -33 1 c-18 1
-38 -4 -44 -10z"/>
<path d="M610 331 c0 -5 -8 -8 -17 -7 -27 6 -27 -61 0 -68 23 -6 67 10 67 24
0 5 7 10 15 10 8 0 15 5 15 11 0 7 -7 8 -17 4 -32 -13 -48 -11 -45 7 1 9 -2
19 -8 23 -5 3 -10 2 -10 -4z"/>
</g>
</svg>
